<svg xmlns="http://www.w3.org/2000/svg" viewBox="0 0 64 64" width="64" height="64"><path d="M10 48 Q18 42 26 48 T42 48 T58 48" fill="none" stroke="#37A6E0" stroke-width="4" stroke-linecap="round" stroke-linejoin="round"/><path d="M10 55 Q18 49 26 55 T42 55 T58 55" fill="none" stroke="#37A6E0" stroke-width="4" stroke-linecap="round" stroke-linejoin="round"/><line x1="32.0" y1="24.0" x2="32.0" y2="42.0" stroke="#FFFFFF" stroke-width="3" stroke-linecap="round"/><line x1="32.0" y1="42.0" x2="30.6" y2="39.5" stroke="#FFFFFF" stroke-width="3" stroke-linecap="round"/><line x1="32.0" y1="42.0" x2="33.4" y2="39.5" stroke="#FFFFFF" stroke-width="3" stroke-linecap="round"/><line x1="32.0" y1="24.0" x2="30.6" y2="21.5" stroke="#FFFFFF" stroke-width="3" stroke-linecap="round"/><line x1="32.0" y1="24.0" x2="33.4" y2="21.5" stroke="#FFFFFF" stroke-width="3" stroke-linecap="round"/><line x1="24.2" y1="28.5" x2="39.8" y2="37.5" stroke="#FFFFFF" stroke-width="3" stroke-linecap="round"/><line x1="39.8" y1="37.5" x2="36.9" y2="37.5" stroke="#FFFFFF" stroke-width="3" stroke-linecap="round"/><line x1="39.8" y1="37.5" x2="38.4" y2="35.0" stroke="#FFFFFF" stroke-width="3" stroke-linecap="round"/><line x1="24.2" y1="28.5" x2="21.3" y2="28.5" stroke="#FFFFFF" stroke-width="3" stroke-linecap="round"/><line x1="24.2" y1="28.5" x2="22.8" y2="26.0" stroke="#FFFFFF" stroke-width="3" stroke-linecap="round"/><line x1="39.8" y1="28.5" x2="24.2" y2="37.5" stroke="#FFFFFF" stroke-width="3" stroke-linecap="round"/><line x1="24.2" y1="37.5" x2="25.6" y2="35.0" stroke="#FFFFFF" stroke-width="3" stroke-linecap="round"/><line x1="24.2" y1="37.5" x2="27.1" y2="37.5" stroke="#FFFFFF" stroke-width="3" stroke-linecap="round"/><line x1="39.8" y1="28.5" x2="41.2" y2="26.0" stroke="#FFFFFF" stroke-width="3" stroke-linecap="round"/><line x1="39.8" y1="28.5" x2="42.7" y2="28.5" stroke="#FFFFFF" stroke-width="3" stroke-linecap="round"/><path d="M12 22 L32 10 L52 22" fill="none" stroke="#98A2AC" stroke-width="3.4" stroke-linecap="round" stroke-linejoin="round"/></svg>