<svg xmlns="http://www.w3.org/2000/svg" viewBox="0 0 660 356" width="660" height="356"><rect x="0" y="0" width="660" height="356" fill="#0E1216"/><rect x="18" y="20" width="96" height="96" rx="20" fill="#1B2129" stroke="#2A323C" stroke-width="1.5"/><g transform="translate(28.6,30.6) scale(1.170)"><path d="M10 46 Q18 40 26 46 T42 46 T58 46" fill="none" stroke="#37A6E0" stroke-width="4" stroke-linecap="round" stroke-linejoin="round"/><path d="M10 53 Q18 47 26 53 T42 53 T58 53" fill="none" stroke="#37A6E0" stroke-width="4" stroke-linecap="round" stroke-linejoin="round"/><line x1="30.0" y1="18.0" x2="30.0" y2="38.0" stroke="#FFFFFF" stroke-width="3" stroke-linecap="round"/><line x1="30.0" y1="38.0" x2="28.4" y2="35.2" stroke="#FFFFFF" stroke-width="3" stroke-linecap="round"/><line x1="30.0" y1="38.0" x2="31.6" y2="35.2" stroke="#FFFFFF" stroke-width="3" stroke-linecap="round"/><line x1="30.0" y1="18.0" x2="28.4" y2="15.2" stroke="#FFFFFF" stroke-width="3" stroke-linecap="round"/><line x1="30.0" y1="18.0" x2="31.6" y2="15.2" stroke="#FFFFFF" stroke-width="3" stroke-linecap="round"/><line x1="21.3" y1="23.0" x2="38.7" y2="33.0" stroke="#FFFFFF" stroke-width="3" stroke-linecap="round"/><line x1="38.7" y1="33.0" x2="35.5" y2="33.0" stroke="#FFFFFF" stroke-width="3" stroke-linecap="round"/><line x1="38.7" y1="33.0" x2="37.1" y2="30.2" stroke="#FFFFFF" stroke-width="3" stroke-linecap="round"/><line x1="21.3" y1="23.0" x2="18.1" y2="23.0" stroke="#FFFFFF" stroke-width="3" stroke-linecap="round"/><line x1="21.3" y1="23.0" x2="19.7" y2="20.2" stroke="#FFFFFF" stroke-width="3" stroke-linecap="round"/><line x1="38.7" y1="23.0" x2="21.3" y2="33.0" stroke="#FFFFFF" stroke-width="3" stroke-linecap="round"/><line x1="21.3" y1="33.0" x2="22.9" y2="30.2" stroke="#FFFFFF" stroke-width="3" stroke-linecap="round"/><line x1="21.3" y1="33.0" x2="24.5" y2="33.0" stroke="#FFFFFF" stroke-width="3" stroke-linecap="round"/><line x1="38.7" y1="23.0" x2="40.3" y2="20.2" stroke="#FFFFFF" stroke-width="3" stroke-linecap="round"/><line x1="38.7" y1="23.0" x2="41.9" y2="23.0" stroke="#FFFFFF" stroke-width="3" stroke-linecap="round"/><circle cx="52" cy="13" r="5" fill="#FFC94D"/><line x1="59.0" y1="13.0" x2="63.0" y2="13.0" stroke="#FFC94D" stroke-width="2.6" stroke-linecap="round"/><line x1="56.9" y1="17.9" x2="59.8" y2="20.8" stroke="#FFC94D" stroke-width="2.6" stroke-linecap="round"/><line x1="52.0" y1="20.0" x2="52.0" y2="24.0" stroke="#FFC94D" stroke-width="2.6" stroke-linecap="round"/><line x1="47.1" y1="17.9" x2="44.2" y2="20.8" stroke="#FFC94D" stroke-width="2.6" stroke-linecap="round"/><line x1="45.0" y1="13.0" x2="41.0" y2="13.0" stroke="#FFC94D" stroke-width="2.6" stroke-linecap="round"/><line x1="47.1" y1="8.1" x2="44.2" y2="5.2" stroke="#FFC94D" stroke-width="2.6" stroke-linecap="round"/><line x1="52.0" y1="6.0" x2="52.0" y2="2.0" stroke="#FFC94D" stroke-width="2.6" stroke-linecap="round"/><line x1="56.9" y1="8.1" x2="59.8" y2="5.2" stroke="#FFC94D" stroke-width="2.6" stroke-linecap="round"/></g><text x="66.0" y="133" fill="#C6CED6" font-family="Helvetica,Arial,sans-serif" font-size="12" text-anchor="middle">Outdoor cold plunge</text><rect x="150" y="20" width="96" height="96" rx="20" fill="#1B2129" stroke="#2A323C" stroke-width="1.5"/><g transform="translate(160.6,30.6) scale(1.170)"><path d="M10 48 Q18 42 26 48 T42 48 T58 48" fill="none" stroke="#37A6E0" stroke-width="4" stroke-linecap="round" stroke-linejoin="round"/><path d="M10 55 Q18 49 26 55 T42 55 T58 55" fill="none" stroke="#37A6E0" stroke-width="4" stroke-linecap="round" stroke-linejoin="round"/><line x1="32.0" y1="24.0" x2="32.0" y2="42.0" stroke="#FFFFFF" stroke-width="3" stroke-linecap="round"/><line x1="32.0" y1="42.0" x2="30.6" y2="39.5" stroke="#FFFFFF" stroke-width="3" stroke-linecap="round"/><line x1="32.0" y1="42.0" x2="33.4" y2="39.5" stroke="#FFFFFF" stroke-width="3" stroke-linecap="round"/><line x1="32.0" y1="24.0" x2="30.6" y2="21.5" stroke="#FFFFFF" stroke-width="3" stroke-linecap="round"/><line x1="32.0" y1="24.0" x2="33.4" y2="21.5" stroke="#FFFFFF" stroke-width="3" stroke-linecap="round"/><line x1="24.2" y1="28.5" x2="39.8" y2="37.5" stroke="#FFFFFF" stroke-width="3" stroke-linecap="round"/><line x1="39.8" y1="37.5" x2="36.9" y2="37.5" stroke="#FFFFFF" stroke-width="3" stroke-linecap="round"/><line x1="39.8" y1="37.5" x2="38.4" y2="35.0" stroke="#FFFFFF" stroke-width="3" stroke-linecap="round"/><line x1="24.2" y1="28.5" x2="21.3" y2="28.5" stroke="#FFFFFF" stroke-width="3" stroke-linecap="round"/><line x1="24.2" y1="28.5" x2="22.8" y2="26.0" stroke="#FFFFFF" stroke-width="3" stroke-linecap="round"/><line x1="39.8" y1="28.5" x2="24.2" y2="37.5" stroke="#FFFFFF" stroke-width="3" stroke-linecap="round"/><line x1="24.2" y1="37.5" x2="25.6" y2="35.0" stroke="#FFFFFF" stroke-width="3" stroke-linecap="round"/><line x1="24.2" y1="37.5" x2="27.1" y2="37.5" stroke="#FFFFFF" stroke-width="3" stroke-linecap="round"/><line x1="39.8" y1="28.5" x2="41.2" y2="26.0" stroke="#FFFFFF" stroke-width="3" stroke-linecap="round"/><line x1="39.8" y1="28.5" x2="42.7" y2="28.5" stroke="#FFFFFF" stroke-width="3" stroke-linecap="round"/><path d="M12 22 L32 10 L52 22" fill="none" stroke="#98A2AC" stroke-width="3.4" stroke-linecap="round" stroke-linejoin="round"/></g><text x="198.0" y="133" fill="#C6CED6" font-family="Helvetica,Arial,sans-serif" font-size="12" text-anchor="middle">Indoor cold plunge</text><rect x="282" y="20" width="96" height="96" rx="20" fill="#1B2129" stroke="#2A323C" stroke-width="1.5"/><g transform="translate(292.6,30.6) scale(1.170)"><path d="M10 46 Q18 40 26 46 T42 46 T58 46" fill="none" stroke="#2CB6A6" stroke-width="4" stroke-linecap="round" stroke-linejoin="round"/><path d="M10 53 Q18 47 26 53 T42 53 T58 53" fill="none" stroke="#2CB6A6" stroke-width="4" stroke-linecap="round" stroke-linejoin="round"/><circle cx="22" cy="30" r="3" fill="#FFFFFF"/><circle cx="31" cy="21" r="2.4" fill="#FFFFFF"/><circle cx="41" cy="31" r="3.2" fill="#FFFFFF"/><circle cx="27" cy="15" r="2" fill="#FFFFFF"/><circle cx="46" cy="20" r="2.2" fill="#FFFFFF"/></g><text x="330.0" y="133" fill="#C6CED6" font-family="Helvetica,Arial,sans-serif" font-size="12" text-anchor="middle">Hydro pool</text><rect x="414" y="20" width="96" height="96" rx="20" fill="#1B2129" stroke="#2A323C" stroke-width="1.5"/><g transform="translate(424.6,30.6) scale(1.170)"><path d="M28 30 C 23 23.7, 33 18.299999999999997, 28 12" fill="none" stroke="#F5A623" stroke-width="3.4" stroke-linecap="round"/><path d="M38 30 C 33 24.4, 43 19.6, 38 14" fill="none" stroke="#F5A623" stroke-width="3.4" stroke-linecap="round"/><path d="M10 30 L20 42 L48 42" fill="none" stroke="#3A4550" stroke-width="4" stroke-linecap="round" stroke-linejoin="round"/><line x1="26" y1="42" x2="26" y2="49" stroke="#3A4550" stroke-width="4" stroke-linecap="round"/><line x1="44" y1="42" x2="44" y2="49" stroke="#3A4550" stroke-width="4" stroke-linecap="round"/><circle cx="11" cy="27" r="4" fill="#3A4550"/></g><text x="462.0" y="133" fill="#C6CED6" font-family="Helvetica,Arial,sans-serif" font-size="12" text-anchor="middle">Heated loungers</text><rect x="546" y="20" width="96" height="96" rx="20" fill="#1B2129" stroke="#2A323C" stroke-width="1.5"/><g transform="translate(556.6,30.6) scale(1.170)"><path d="M26 32 C 21 25.7, 31 20.299999999999997, 26 14" fill="none" stroke="#F5822A" stroke-width="3.4" stroke-linecap="round"/><path d="M38 32 C 33 25.0, 43 19.0, 38 12" fill="none" stroke="#F5822A" stroke-width="3.4" stroke-linecap="round"/><rect x="15" y="34" width="30" height="9" rx="3" fill="#F27B9D"/><rect x="11" y="44" width="38" height="9" rx="3" fill="#D94E7C"/><line x1="18" y1="37" x2="42" y2="37" stroke="#FFFFFF" stroke-width="2" stroke-linecap="round" opacity="0.55"/></g><text x="594.0" y="133" fill="#C6CED6" font-family="Helvetica,Arial,sans-serif" font-size="12" text-anchor="middle">Himalayan salt sauna</text><rect x="18" y="178" width="96" height="96" rx="20" fill="#1B2129" stroke="#2A323C" stroke-width="1.5"/><g transform="translate(28.6,188.6) scale(1.170)"><path d="M21 48 C 14 40 28 34 21 26 S 15 16 21 10" fill="none" stroke="#CFEBFF" stroke-width="4" stroke-linecap="round"/><path d="M33 48 C 26 40 40 34 33 26 S 27 16 33 10" fill="none" stroke="#CFEBFF" stroke-width="4" stroke-linecap="round"/><path d="M45 48 C 38 40 52 34 45 26 S 39 16 45 10" fill="none" stroke="#CFEBFF" stroke-width="4" stroke-linecap="round"/><line x1="14" y1="50" x2="50" y2="50" stroke="#37A6E0" stroke-width="4" stroke-linecap="round"/></g><text x="66.0" y="291" fill="#C6CED6" font-family="Helvetica,Arial,sans-serif" font-size="12" text-anchor="middle">Steam room</text><rect x="150" y="178" width="96" height="96" rx="20" fill="#1B2129" stroke="#2A323C" stroke-width="1.5"/><g transform="translate(160.6,188.6) scale(1.170)"><line x1="32" y1="12" x2="32" y2="52" stroke="#3A4550" stroke-width="1.5" opacity="0.35" stroke-dasharray="3 3"/><g transform="translate(-13,0) scale(1)"><path d="M32 6 C 46 26 43 35 39 42 A 12 12 0 1 1 25 42 C 21 35 24 26 32 6 Z" fill="#F5822A"/><path d="M32 22 C 39 32 37 38 35 43 A 7 7 0 1 1 29 43 C 28 38 29 33 32 22 Z" fill="#FFC94D"/></g><line x1="45.0" y1="21.0" x2="45.0" y2="43.0" stroke="#37A6E0" stroke-width="3" stroke-linecap="round"/><line x1="45.0" y1="43.0" x2="43.2" y2="40.0" stroke="#37A6E0" stroke-width="3" stroke-linecap="round"/><line x1="45.0" y1="43.0" x2="46.8" y2="40.0" stroke="#37A6E0" stroke-width="3" stroke-linecap="round"/><line x1="45.0" y1="21.0" x2="43.2" y2="18.0" stroke="#37A6E0" stroke-width="3" stroke-linecap="round"/><line x1="45.0" y1="21.0" x2="46.8" y2="18.0" stroke="#37A6E0" stroke-width="3" stroke-linecap="round"/><line x1="35.5" y1="26.5" x2="54.5" y2="37.5" stroke="#37A6E0" stroke-width="3" stroke-linecap="round"/><line x1="54.5" y1="37.5" x2="51.0" y2="37.5" stroke="#37A6E0" stroke-width="3" stroke-linecap="round"/><line x1="54.5" y1="37.5" x2="52.8" y2="34.5" stroke="#37A6E0" stroke-width="3" stroke-linecap="round"/><line x1="35.5" y1="26.5" x2="32.0" y2="26.5" stroke="#37A6E0" stroke-width="3" stroke-linecap="round"/><line x1="35.5" y1="26.5" x2="33.7" y2="23.5" stroke="#37A6E0" stroke-width="3" stroke-linecap="round"/><line x1="54.5" y1="26.5" x2="35.5" y2="37.5" stroke="#37A6E0" stroke-width="3" stroke-linecap="round"/><line x1="35.5" y1="37.5" x2="37.2" y2="34.5" stroke="#37A6E0" stroke-width="3" stroke-linecap="round"/><line x1="35.5" y1="37.5" x2="39.0" y2="37.5" stroke="#37A6E0" stroke-width="3" stroke-linecap="round"/><line x1="54.5" y1="26.5" x2="56.3" y2="23.5" stroke="#37A6E0" stroke-width="3" stroke-linecap="round"/><line x1="54.5" y1="26.5" x2="58.0" y2="26.5" stroke="#37A6E0" stroke-width="3" stroke-linecap="round"/></g><text x="198.0" y="291" fill="#C6CED6" font-family="Helvetica,Arial,sans-serif" font-size="12" text-anchor="middle">Fire &amp; ice room</text><rect x="282" y="178" width="96" height="96" rx="20" fill="#1B2129" stroke="#2A323C" stroke-width="1.5"/><g transform="translate(292.6,188.6) scale(1.170)"><path d="M24 34 C 19 26.3, 29 19.7, 24 12" fill="none" stroke="#F5822A" stroke-width="3.4" stroke-linecap="round"/><path d="M33 34 C 28 27.0, 38 21.0, 33 14" fill="none" stroke="#E8452A" stroke-width="3.4" stroke-linecap="round"/><path d="M42 34 C 37 26.3, 47 19.7, 42 12" fill="none" stroke="#F5822A" stroke-width="3.4" stroke-linecap="round"/><ellipse cx="24" cy="46" rx="11" ry="7.5" fill="#98A2AC"/><ellipse cx="41" cy="46" rx="11" ry="7.5" fill="#98A2AC"/><ellipse cx="32" cy="39" rx="10" ry="7" fill="#6E7880"/></g><text x="330.0" y="291" fill="#C6CED6" font-family="Helvetica,Arial,sans-serif" font-size="12" text-anchor="middle">Finnish sauna</text><rect x="414" y="178" width="96" height="96" rx="20" fill="#1B2129" stroke="#2A323C" stroke-width="1.5"/><g transform="translate(424.6,188.6) scale(1.170)"><path d="M9 52 A 23 21 0 0 1 55 52 Z" fill="#1E6E9E"/><path d="M17 33 L23 33 L20 45 Z" fill="#CFEBFF"/><path d="M25 33 L31 33 L28 41 Z" fill="#CFEBFF"/><path d="M33 33 L39 33 L36 46 Z" fill="#CFEBFF"/><path d="M41 33 L47 33 L44 42 Z" fill="#CFEBFF"/><line x1="8" y1="52" x2="56" y2="52" stroke="#1E6E9E" stroke-width="3" stroke-linecap="round"/></g><text x="462.0" y="291" fill="#C6CED6" font-family="Helvetica,Arial,sans-serif" font-size="12" text-anchor="middle">Ice cave</text><rect x="546" y="178" width="96" height="96" rx="20" fill="#1B2129" stroke="#2A323C" stroke-width="1.5"/><g transform="translate(556.6,188.6) scale(1.170)"><circle cx="50" cy="15" r="6" fill="#FFC94D"/><line x1="58.0" y1="15.0" x2="62.0" y2="15.0" stroke="#FFC94D" stroke-width="2.6" stroke-linecap="round"/><line x1="55.7" y1="20.7" x2="58.5" y2="23.5" stroke="#FFC94D" stroke-width="2.6" stroke-linecap="round"/><line x1="50.0" y1="23.0" x2="50.0" y2="27.0" stroke="#FFC94D" stroke-width="2.6" stroke-linecap="round"/><line x1="44.3" y1="20.7" x2="41.5" y2="23.5" stroke="#FFC94D" stroke-width="2.6" stroke-linecap="round"/><line x1="42.0" y1="15.0" x2="38.0" y2="15.0" stroke="#FFC94D" stroke-width="2.6" stroke-linecap="round"/><line x1="44.3" y1="9.3" x2="41.5" y2="6.5" stroke="#FFC94D" stroke-width="2.6" stroke-linecap="round"/><line x1="50.0" y1="7.0" x2="50.0" y2="3.0" stroke="#FFC94D" stroke-width="2.6" stroke-linecap="round"/><line x1="55.7" y1="9.3" x2="58.5" y2="6.5" stroke="#FFC94D" stroke-width="2.6" stroke-linecap="round"/><path d="M10 30 L20 42 L48 42" fill="none" stroke="#3A4550" stroke-width="4" stroke-linecap="round" stroke-linejoin="round"/><line x1="26" y1="42" x2="26" y2="49" stroke="#3A4550" stroke-width="4" stroke-linecap="round"/><line x1="44" y1="42" x2="44" y2="49" stroke="#3A4550" stroke-width="4" stroke-linecap="round"/><circle cx="11" cy="27" r="4" fill="#3A4550"/></g><text x="594.0" y="291" fill="#C6CED6" font-family="Helvetica,Arial,sans-serif" font-size="12" text-anchor="middle">Outdoor lounger</text></svg>