<svg xmlns="http://www.w3.org/2000/svg" viewBox="0 0 64 64" width="64" height="64"><line x1="32" y1="12" x2="32" y2="52" stroke="#3A4550" stroke-width="1.5" opacity="0.35" stroke-dasharray="3 3"/><g transform="translate(-13,0) scale(1)"><path d="M32 6 C 46 26 43 35 39 42 A 12 12 0 1 1 25 42 C 21 35 24 26 32 6 Z" fill="#F5822A"/><path d="M32 22 C 39 32 37 38 35 43 A 7 7 0 1 1 29 43 C 28 38 29 33 32 22 Z" fill="#FFC94D"/></g><line x1="45.0" y1="21.0" x2="45.0" y2="43.0" stroke="#37A6E0" stroke-width="3" stroke-linecap="round"/><line x1="45.0" y1="43.0" x2="43.2" y2="40.0" stroke="#37A6E0" stroke-width="3" stroke-linecap="round"/><line x1="45.0" y1="43.0" x2="46.8" y2="40.0" stroke="#37A6E0" stroke-width="3" stroke-linecap="round"/><line x1="45.0" y1="21.0" x2="43.2" y2="18.0" stroke="#37A6E0" stroke-width="3" stroke-linecap="round"/><line x1="45.0" y1="21.0" x2="46.8" y2="18.0" stroke="#37A6E0" stroke-width="3" stroke-linecap="round"/><line x1="35.5" y1="26.5" x2="54.5" y2="37.5" stroke="#37A6E0" stroke-width="3" stroke-linecap="round"/><line x1="54.5" y1="37.5" x2="51.0" y2="37.5" stroke="#37A6E0" stroke-width="3" stroke-linecap="round"/><line x1="54.5" y1="37.5" x2="52.8" y2="34.5" stroke="#37A6E0" stroke-width="3" stroke-linecap="round"/><line x1="35.5" y1="26.5" x2="32.0" y2="26.5" stroke="#37A6E0" stroke-width="3" stroke-linecap="round"/><line x1="35.5" y1="26.5" x2="33.7" y2="23.5" stroke="#37A6E0" stroke-width="3" stroke-linecap="round"/><line x1="54.5" y1="26.5" x2="35.5" y2="37.5" stroke="#37A6E0" stroke-width="3" stroke-linecap="round"/><line x1="35.5" y1="37.5" x2="37.2" y2="34.5" stroke="#37A6E0" stroke-width="3" stroke-linecap="round"/><line x1="35.5" y1="37.5" x2="39.0" y2="37.5" stroke="#37A6E0" stroke-width="3" stroke-linecap="round"/><line x1="54.5" y1="26.5" x2="56.3" y2="23.5" stroke="#37A6E0" stroke-width="3" stroke-linecap="round"/><line x1="54.5" y1="26.5" x2="58.0" y2="26.5" stroke="#37A6E0" stroke-width="3" stroke-linecap="round"/></svg>