<svg xmlns="http://www.w3.org/2000/svg" viewBox="0 0 64 64" width="64" height="64"><path d="M10 46 Q18 40 26 46 T42 46 T58 46" fill="none" stroke="#37A6E0" stroke-width="4" stroke-linecap="round" stroke-linejoin="round"/><path d="M10 53 Q18 47 26 53 T42 53 T58 53" fill="none" stroke="#37A6E0" stroke-width="4" stroke-linecap="round" stroke-linejoin="round"/><line x1="30.0" y1="18.0" x2="30.0" y2="38.0" stroke="#FFFFFF" stroke-width="3" stroke-linecap="round"/><line x1="30.0" y1="38.0" x2="28.4" y2="35.2" stroke="#FFFFFF" stroke-width="3" stroke-linecap="round"/><line x1="30.0" y1="38.0" x2="31.6" y2="35.2" stroke="#FFFFFF" stroke-width="3" stroke-linecap="round"/><line x1="30.0" y1="18.0" x2="28.4" y2="15.2" stroke="#FFFFFF" stroke-width="3" stroke-linecap="round"/><line x1="30.0" y1="18.0" x2="31.6" y2="15.2" stroke="#FFFFFF" stroke-width="3" stroke-linecap="round"/><line x1="21.3" y1="23.0" x2="38.7" y2="33.0" stroke="#FFFFFF" stroke-width="3" stroke-linecap="round"/><line x1="38.7" y1="33.0" x2="35.5" y2="33.0" stroke="#FFFFFF" stroke-width="3" stroke-linecap="round"/><line x1="38.7" y1="33.0" x2="37.1" y2="30.2" stroke="#FFFFFF" stroke-width="3" stroke-linecap="round"/><line x1="21.3" y1="23.0" x2="18.1" y2="23.0" stroke="#FFFFFF" stroke-width="3" stroke-linecap="round"/><line x1="21.3" y1="23.0" x2="19.7" y2="20.2" stroke="#FFFFFF" stroke-width="3" stroke-linecap="round"/><line x1="38.7" y1="23.0" x2="21.3" y2="33.0" stroke="#FFFFFF" stroke-width="3" stroke-linecap="round"/><line x1="21.3" y1="33.0" x2="22.9" y2="30.2" stroke="#FFFFFF" stroke-width="3" stroke-linecap="round"/><line x1="21.3" y1="33.0" x2="24.5" y2="33.0" stroke="#FFFFFF" stroke-width="3" stroke-linecap="round"/><line x1="38.7" y1="23.0" x2="40.3" y2="20.2" stroke="#FFFFFF" stroke-width="3" stroke-linecap="round"/><line x1="38.7" y1="23.0" x2="41.9" y2="23.0" stroke="#FFFFFF" stroke-width="3" stroke-linecap="round"/><circle cx="52" cy="13" r="5" fill="#FFC94D"/><line x1="59.0" y1="13.0" x2="63.0" y2="13.0" stroke="#FFC94D" stroke-width="2.6" stroke-linecap="round"/><line x1="56.9" y1="17.9" x2="59.8" y2="20.8" stroke="#FFC94D" stroke-width="2.6" stroke-linecap="round"/><line x1="52.0" y1="20.0" x2="52.0" y2="24.0" stroke="#FFC94D" stroke-width="2.6" stroke-linecap="round"/><line x1="47.1" y1="17.9" x2="44.2" y2="20.8" stroke="#FFC94D" stroke-width="2.6" stroke-linecap="round"/><line x1="45.0" y1="13.0" x2="41.0" y2="13.0" stroke="#FFC94D" stroke-width="2.6" stroke-linecap="round"/><line x1="47.1" y1="8.1" x2="44.2" y2="5.2" stroke="#FFC94D" stroke-width="2.6" stroke-linecap="round"/><line x1="52.0" y1="6.0" x2="52.0" y2="2.0" stroke="#FFC94D" stroke-width="2.6" stroke-linecap="round"/><line x1="56.9" y1="8.1" x2="59.8" y2="5.2" stroke="#FFC94D" stroke-width="2.6" stroke-linecap="round"/></svg>